<svg
    version="1.0"
    xmlns="http://www.w3.org/2000/svg"
    width="293.000000pt" 
    height="225.000000pt" 
    viewBox="0 0 146.000000 125.000000"  
    preserveAspectRatio="xMidYMid meet">  
    <g
        transform="translate(-70.000000,170.000000) scale(0.100000,-0.100000)"
        fill="#ffffff"
        stroke="none">
        <path
            d="M1802 1637 c-45 -14 -118 -81 -145 -131 -31 -59 -31 -172 1 -215 12 -16 22 -35 22 -40 0 -5 19 -26 42 -45 l42 -36 -32 0 c-39 0 -40 -13 -6 -45 32 -30 112 -49 170 -40 43 6 45 5 40 -17 -3 -13 -8 -40 -11 -61 -5 -32 -10 -38 -28 -36 -12 1 -40 -3 -62 -10 -22 -6 -94 -23 -159 -36 -66 -14 -121 -27 -123 -29 -2 -2 -15 7 -29 21 l-25 25 23 69 22 69 -29 30 c-16 16 -34 30 -41 30 -7 0 -22 -16 -34 -37 l-21 -36 29 -65 29 -65 -21 -32 c-20 -30 -28 -33 -181 -65 -88 -18 -165 -35 -171 -37 -9 -3 -49 77 -41 82 1 1 22 9 47 18 59 22 116 69 140 118 25 49 25 53 -2 35 -19 -12 -119 -45 -213 -70 -11 -3 15 -4 58 -1 47 2 75 0 71 -6 -3 -5 -32 -23 -64 -39 -59 -30 -123 -38 -177 -24 -32 9 -29 20 10 35 17 7 41 16 52 21 12 5 4 6 -23 3 -24 -3 -70 -8 -103 -12 -32 -3 -59 -9 -59 -13 0 -4 12 -19 26 -33 31 -31 111 -50 171 -41 l44 6 -7 -43 c-4 -24 -13 -48 -20 -52 -13 -7 -20 -37 -9 -37 3 0 102 20 221 46 119 25 217 44 218 42 0 -2 7 -14 14 -26 11 -21 10 -38 -9 -118 -22 -90 -24 -94 -50 -94 -15 0 -31 -5 -34 -10 -3 -6 -15 -10 -26 -10 -11 0 -38 -12 -62 -27 l-42 -28 50 -6 c41 -6 350 -12 445 -9 23 1 23 2 8 14 -10 7 -15 16 -11 19 3 4 1 7 -6 7 -7 0 -10 4 -6 9 3 5 0 13 -6 17 -8 4 -9 3 -5 -4 10 -16 5 -15 -45 8 -24 11 -56 20 -70 20 -24 0 -27 6 -51 100 -14 55 -21 100 -17 100 4 0 13 16 20 35 7 19 20 35 28 35 8 0 42 6 75 14 34 8 99 22 146 31 47 9 119 24 159 33 l75 18 -22 20 c-19 18 -52 82 -52 102 0 4 19 13 43 19 53 14 122 64 147 106 31 51 26 56 -34 31 -18 -7 -18 -4 5 32 20 33 24 52 24 119 0 69 -4 86 -27 126 -62 105 -190 154 -306 116z m176 -23 c125 -52 179 -206 117 -331 -17 -34 -34 -53 -49 -57 -13 -3 -32 -9 -43 -12 -10 -3 -3 6 15 21 108 89 91 275 -31 338 -81 41 -168 32 -233 -26 -72 -62 -94 -159 -55 -242 24 -52 57 -82 116 -104 l48 -18 -38 -5 c-51 -6 -109 38 -147 111 -65 124 -5 281 124 328 47 17 133 16 176 -3z m-43 -35 c86 -24 144 -98 145 -187 0 -57 -19 -99 -65 -144 -76 -73 -181 -71 -260 6 -110 105 -72 270 74 322 45 16 56 17 106 3z m119 -400 c-43 -48 -225 -79 -254 -44 -10 12 -9 15 4 16 9 1 19 2 24 3 4 1 32 6 61 10 30 5 71 14 90 20 19 7 47 12 62 12 26 0 28 -1 13 -17z m-563 -112 c-1 -4 -1 -14 -1 -22 0 -8 -4 -15 -9 -15 -12 0 -23 29 -15 41 6 11 26 8 25 -4z m19 -202 c0 -15 -6 -25 -14 -25 -22 0 -30 19 -16 35 18 22 30 18 30 -10z m4 -212 c17 -50 51 -93 73 -93 7 0 13 -4 13 -10 0 -6 -43 -10 -110 -10 -71 0 -110 4 -110 11 0 5 4 8 9 4 17 -10 71 50 87 98 9 26 17 47 19 47 2 0 10 -21 19 -47z"/> <path d="M1870 1531 c0 -5 -13 -23 -30 -39 -49 -49 -34 -97 36 -117 28 -8 39 -16 39 -30 0 -24 -43 -32 -74 -15 -17 8 -22 7 -31 -10 -9 -17 -7 -22 15 -30 15 -6 31 -10 36 -10 5 0 9 -7 9 -15 0 -8 9 -15 20 -15 11 0 20 5 20 11 0 6 11 20 24 30 52 41 41 99 -21 119 -48 16 -63 28 -56 46 6 16 46 19 73 4 14 -8 19 -5 23 11 4 15 -1 23 -19 31 -13 6 -24 17 -24 25 0 7 -9 13 -20 13 -11 0 -20 -4 -20 -9z"/>
        <path
            d="M927 1501 c-10 -4 -18 -11 -17 -16 2 -12 -34 -24 -41 -14 -10 16 -85 -42 -116 -90 -54 -80 -65 -152 -36 -241 18 -56 94 -150 121 -150 11 0 3 14 -25 43 -63 65 -83 110 -83 190 0 84 16 123 76 187 50 53 52 54 72 41 15 -9 6 -32 -33 -82 -20 -24 -22 -45 -13 -115 3 -20 24 -48 77 -100 20 -20 21 -24 7 -30 -21 -8 -20 -33 2 -64 9 -14 17 -35 17 -47 0 -13 5 -22 10 -20 9 2 11 40 3 97 -5 36 22 36 65 -1 29 -25 36 -36 31 -55 -8 -33 8 -30 34 6 26 35 27 40 7 40 -8 0 -23 8 -33 18 -30 29 -99 63 -116 56 -11 -4 -19 3 -27 22 -7 16 -12 32 -11 37 1 4 -7 7 -18 7 -22 0 -26 20 -9 37 13 13 39 6 57 -15 7 -10 12 -11 12 -4 0 20 40 54 76 64 40 11 41 16 13 52 -25 31 -36 33 -44 5 l-7 -21 -15 21 c-16 23 -8 45 13 37 17 -7 17 -5 1 26 -7 14 -18 23 -25 20 -19 -6 -14 36 6 47 32 17 157 -20 157 -47 0 -14 35 -56 41 -49 3 3 -2 23 -12 44 -15 29 -30 42 -64 55 -46 17 -121 22 -153 9z m13 -106 c-12 -14 -3 -43 18 -64 12 -13 12 -16 -4 -28 -10 -7 -35 -13 -56 -13 -34 0 -38 3 -38 26 0 14 14 46 31 70 25 37 33 43 45 33 10 -8 11 -15 4 -24z"/> <path d="M987 1430 c3 -11 10 -20 15 -20 5 0 7 -4 3 -9 -3 -5 -1 -12 4 -15 5 -4 12 -2 15 3 4 5 2 12 -4 16 -5 3 -10 13 -10 21 0 24 19 6 36 -34 l15 -36 15 28 c13 26 13 31 -2 48 -11 11 -31 18 -55 18 -32 0 -36 -3 -32 -20z"/>
        <path d="M1171 1420 c14 -22 20 -57 20 -112 0 -10 4 -20 10 -23 5 -4 9 6 9 21 0 21 4 25 19 21 19 -5 19 -4 0 33 -11 20 -31 48 -46 61 l-27 24 15 -25z"/>
        <path d="M1225 1287 c-22 -34 -30 -111 -15 -147 15 -36 27 -38 39 -7 18 46 18 177 1 177 -5 0 -16 -10 -25 -23z"/>
    </g>
</svg> 